<svg xmlns="http://www.w3.org/2000/svg"  viewBox="0 0 64 64" width="64px" height="64px"><linearGradient id="~5CKqFGNnFcjKpxmP36mMa" x1="32" x2="32" y1="8.083" y2="53.676" gradientUnits="userSpaceOnUse" spreadMethod="reflect"><stop offset="0" stop-color="#1a6dff"/><stop offset="1" stop-color="#c822ff"/></linearGradient><path fill="url(#~5CKqFGNnFcjKpxmP36mMa)" d="M50,54H14c-2.757,0-5-2.243-5-5V13c0-2.757,2.243-5,5-5h36c2.757,0,5,2.243,5,5v36 C55,51.757,52.757,54,50,54z M14,10c-1.654,0-3,1.346-3,3v36c0,1.654,1.346,3,3,3h36c1.654,0,3-1.346,3-3V13c0-1.654-1.346-3-3-3H14 z"/><linearGradient id="~5CKqFGNnFcjKpxmP36mMb" x1="24.5" x2="24.5" y1="20" y2="43" gradientUnits="userSpaceOnUse" spreadMethod="reflect"><stop offset="0" stop-color="#6dc7ff"/><stop offset="1" stop-color="#e6abff"/></linearGradient><path fill="url(#~5CKqFGNnFcjKpxmP36mMb)" d="M27,20h-5c-2.21,0-4,1.79-4,4v18c0,0.55,0.45,1,1,1h2c0.55,0,1-0.45,1-1v-7h5v7 c0,0.55,0.45,1,1,1h2c0.55,0,1-0.45,1-1V24C31,21.79,29.21,20,27,20z M26,31h-3c-0.55,0-1-0.45-1-1v-5c0-0.55,0.45-1,1-1h3 c0.55,0,1,0.45,1,1v5C27,30.55,26.55,31,26,31z"/><linearGradient id="~5CKqFGNnFcjKpxmP36mMc" x1="40" x2="40" y1="25" y2="43" gradientUnits="userSpaceOnUse" spreadMethod="reflect"><stop offset="0" stop-color="#6dc7ff"/><stop offset="1" stop-color="#e6abff"/></linearGradient><path fill="url(#~5CKqFGNnFcjKpxmP36mMc)" d="M42,37c2.209,0,4-1.791,4-4v-4c0-2.209-1.791-4-4-4h-4c-2.209,0-4,1.791-4,4v2.375V39 c0,2.209,1.791,4,4,4h4c2.209,0,4-1.791,4-4c0-0.552-0.448-1-1-1h-2c-0.552,0-1,0.448-1,1h-4v-2H42z M38,30c0-0.55,0.45-1,1-1h2 c0.55,0,1,0.45,1,1v2c0,0.55-0.45,1-1,1h-2c-0.55,0-1-0.45-1-1V30z"/></svg>